<svg xmlns="http://www.w3.org/2000/svg" viewBox="0 0 512 512">
  <rect width="512" height="512" rx="15" fill="#016fd0"/>
  <path d="M256 256h256v-85.33H256V256zm0 85.33h256v-85.33H256v85.33zM0 341.33h256V256H0v85.33zm0-170.66h256v-85.33H0v85.33z" fill="#fff"/>
  <path d="M145.07 298.67H128l-17.07-41.6-17.06 41.6H76.8v-58.67h13.87v44.27l18.13-44.27h13.87l18.13 44.27v-44.27h13.87v58.67h-9.6zm42.66 0h-46.93v-58.67h46.93v12.27h-33.06v10.66h32v12.27h-32v11.2h33.06v12.27zm64-46.4h-18.13v46.4h-13.87v-46.4h-18.13v-12.27h50.13v12.27zm37.34 46.4l-27.74-39.47v39.47h-13.86v-58.67h12.8l27.73 39.47v-39.47h13.87v58.67h-12.8z" fill="#fff"/>
</svg>

