<svg xmlns="http://www.w3.org/2000/svg" viewBox="0 0 780 500">
  <path d="M40,0h700c22.1,0,40,17.9,40,40v420c0,22.1-17.9,40-40,40H40c-22.1,0-40-17.9-40-40V40C0,17.9,17.9,0,40,0z" fill="#0079BE"/>
  <path d="M598.6,250.1c0-99.3-82.3-168.9-176.9-168.9c-97.6,0-176.9,69.6-176.9,168.9c0,99.3,79.3,168.9,176.9,168.9C516.3,419,598.6,349.4,598.6,250.1z" fill="#FFFFFF"/>
  <path d="M321.5,131.2c-66.1,0-119.6,53.5-119.6,119.6c0,66.1,53.5,119.6,119.6,119.6c66.1,0,119.6-53.5,119.6-119.6C441.1,184.7,387.6,131.2,321.5,131.2z M244.8,250.8c0-42.3,34.3-76.6,76.6-76.6c42.3,0,76.6,34.3,76.6,76.6c0,42.3-34.3,76.6-76.6,76.6C279.1,327.4,244.8,293.1,244.8,250.8z" fill="#0079BE"/>
  <path d="M341.7,236.8c3.3-3.3,3.3-8.7,0-12c-3.3-3.3-8.7-3.3-12,0c-3.3,3.3-3.3,8.7,0,12C333,240.1,338.4,240.1,341.7,236.8z M334.8,274.9c-2.5,0-4.5-2-4.5-4.5c0-2.5,2-4.5,4.5-4.5c2.5,0,4.5,2,4.5,4.5C339.3,272.9,337.3,274.9,334.8,274.9z M334.8,231.1c-2.5,0-4.5-2-4.5-4.5c0-2.5,2-4.5,4.5-4.5c2.5,0,4.5,2,4.5,4.5C339.3,229.1,337.3,231.1,334.8,231.1z M308.2,236.8c3.3-3.3,3.3-8.7,0-12c-3.3-3.3-8.7-3.3-12,0c-3.3,3.3-3.3,8.7,0,12C299.5,240.1,304.9,240.1,308.2,236.8z" fill="#0079BE"/>
</svg>

