<svg xmlns="http://www.w3.org/2000/svg" viewBox="0 0 780 500">
  <path d="M40,0h700c22.1,0,40,17.9,40,40v420c0,22.1-17.9,40-40,40H40c-22.1,0-40-17.9-40-40V40C0,17.9,17.9,0,40,0z" fill="#4D4D4D"/>
  <path d="M415,158c30.6-31.3,73.1-50.7,120.1-50.7c92.7,0,167.9,75.1,167.9,167.8c0,92.7-75.2,167.9-167.9,167.9c-47,0-89.5-19.4-120.1-50.7" fill="#F47216"/>
  <path d="M469.1,177.5h-29.3v95.2h29.3V177.5z M311.9,177.5l-40.4,65.7l-24.1-65.7h-34.4v92.2l-45.5-92.2h-28.3l-47.4,95.2h31.2l9.9-22.7h53.1l10,22.7h57.3v-70.5l26.7,70.5h21.6l26.8-70.5v70.5h29.8V177.5H311.9z M149.4,228.3l15.6-37.6l15.7,37.6H149.4z M505.9,223.4c0-13.3,8.2-25.6,24.3-25.6c14.2,0,23.2,10.1,23.2,25.6c0,16.3-9.4,25.9-23.5,25.9C514.5,249.3,505.9,238.9,505.9,223.4z M583.8,223.4c0-28.5-17.7-48.6-53.2-48.6c-31.5,0-53.7,19.7-53.7,49.1c0,30.1,21.2,48.1,53.7,48.1c16.4,0,29.6-3.8,41.1-11.7l-11.5-22c-8.4,5.4-18.7,8.3-28.5,8.3c-13.6,0-24.1-6.4-26.5-19.1h78.1C583.5,226.2,583.8,224.8,583.8,223.4z M505.3,209.3c2-11.5,9.6-17.3,21.3-17.3c10.2,0,18.4,5.5,20.5,17.3H505.3z M650.5,225.6c13.1-2.7,19.4-12.2,19.4-24c0-17.7-13.1-24.1-33.4-24.1h-43.9v95.2h30.2v-31.8h2.4l25.5,31.8h37.1L650.5,225.6z M629.3,221.1h-6.6v-24.1h6.6c9.4,0,14.5,3.9,14.5,11.8C643.8,217.1,638.6,221.1,629.3,221.1z" fill="#FFFFFF"/>
</svg>

