<svg xmlns="http://www.w3.org/2000/svg" viewBox="0 0 512 512">
  <rect width="512" height="512" rx="15" fill="#fff"/>
  <path d="M186.4 187.5c-9.7 0-17.8 7.5-17.8 17.8 0 10.1 8.1 17.8 17.8 17.8 9.7 0 17.8-7.7 17.8-17.8 0-10.3-8.1-17.8-17.8-17.8zm0 28.5c-5.5 0-10.3-4.5-10.3-10.7 0-6.3 4.8-10.7 10.3-10.7 5.5 0 10.3 4.3 10.3 10.7 0 6.2-4.8 10.7-10.3 10.7zm39.2-28.5c-9.7 0-17.8 7.5-17.8 17.8 0 10.1 8.1 17.8 17.8 17.8 9.7 0 17.8-7.7 17.8-17.8 0-10.3-8.1-17.8-17.8-17.8zm0 28.5c-5.5 0-10.3-4.5-10.3-10.7 0-6.3 4.8-10.7 10.3-10.7 5.5 0 10.3 4.3 10.3 10.7 0 6.2-4.8 10.7-10.3 10.7zm46.6-23.1v7.5h18c-.5 4.2-1.9 7.3-4 9.5-2.6 2.6-6.6 5.4-13.6 5.4-10.9 0-19.4-8.8-19.4-19.7s8.5-19.7 19.4-19.7c5.9 0 10.1 2.3 13.3 5.3l5.3-5.3c-4.4-4.2-10.3-7.5-18.6-7.5-15 0-27.6 12.2-27.6 27.2s12.6 27.2 27.6 27.2c8.1 0 14.2-2.7 19-7.6 4.9-4.9 6.4-11.8 6.4-17.4 0-1.7-.1-3.3-.4-4.6h-25.4v-.3zm189.8 5.8c-1.5-4-6-11.3-15.2-11.3-9.2 0-16.8 7.2-16.8 17.8 0 10 7.6 17.8 17.6 17.8 8.1 0 12.9-5 14.8-7.9l-6.1-4c-2 2.9-4.7 4.8-8.7 4.8-4 0-6.8-1.8-8.6-5.4l23.7-9.8-.7-2zm-24.2 5.9c-.2-6.9 5.3-10.4 9.3-10.4 3.1 0 5.7 1.5 6.6 3.8l-15.9 6.6zm-19.3 17.3h7.5v-50.2h-7.5v50.2zm-12.3-29.3h-.3c-1.7-2-4.9-3.8-9-3.8-8.6 0-16.4 7.5-16.4 17.8 0 10.2 7.9 17.7 16.4 17.7 4.1 0 7.3-1.8 9-3.9h.2v2.5c0 6.5-3.5 10-9.1 10-4.6 0-7.5-3.3-8.6-6.1l-6.5 2.7c1.9 4.5 6.8 10.1 15.1 10.1 8.8 0 16.2-5.2 16.2-17.7v-30.5h-7.1v2.2h.1zm-8.6 23.6c-5.5 0-10.1-4.6-10.1-10.9 0-6.4 4.6-11 10.1-11 5.4 0 9.7 4.6 9.7 11 0 6.3-4.3 10.9-9.7 10.9zm103.9-44.5h-17.9v50.2h7.5v-19h10.4c8.3 0 16.4-6 16.4-15.6 0-9.6-8.2-15.6-16.4-15.6zm.2 24.2h-10.6v-17.2h10.6c5.6 0 8.8 4.6 8.8 8.6-.1 3.9-3.2 8.6-8.8 8.6zm46.1-7.2c-5.4 0-11 2.4-13.3 7.6l6.6 2.8c1.4-2.8 4-3.7 6.8-3.7 3.9 0 7.8 2.3 7.8 6.5v.5c-1.3-.8-4.2-1.9-7.8-1.9-7.1 0-14.4 3.9-14.4 11.2 0 6.7 5.8 11 12.3 11 5 0 7.7-2.2 9.4-4.9h.3v3.9h7.2v-19.1c0-8.9-6.6-13.9-14.9-13.9zm-.9 27.2c-2.4 0-5.8-1.2-5.8-4.3 0-3.9 4.3-5.4 8-5.4 3.3 0 4.9.7 6.9 1.7-1 4.3-4.6 8-9.1 8zm43.1-26.1l-8.6 21.7h-.3l-8.9-21.7h-8.1l13.4 30.4-7.6 16.9h7.8l20.6-47.3h-8.3z" fill="#5f6368"/>
  <path d="M113.8 227.9c0-3.6 3-6.6 6.6-6.6 3.6 0 6.6 3 6.6 6.6 0 3.6-3 6.6-6.6 6.6-3.6 0-6.6-2.9-6.6-6.6zm14.5 0c0-4.4-3.6-7.9-7.9-7.9-4.4 0-7.9 3.6-7.9 7.9 0 4.4 3.6 7.9 7.9 7.9 4.4 0 7.9-3.5 7.9-7.9zm-6.9 4.5h-1.6v-8.9h3.5c.7 0 1.4.2 2 .7.6.5.9 1.1.9 1.9 0 1.7-1 2.5-2 2.7l2.1 3.6h-1.8l-2-3.4h-1.2v3.4h.1zm0-4.8h1.8c.5 0 .9-.1 1.2-.4.3-.2.4-.6.4-1s-.1-.7-.4-1c-.3-.2-.7-.4-1.2-.4h-1.8v2.8z" fill="#4285f4"/>
  <path d="M142.1 220.3v14.9h-2.2v-14.9h2.2zm15.8 0v14.9h-2.2v-8.7l-5.4 8.7h-1l-5.4-8.6v8.6h-2.2v-14.9h2.5l5.6 9.1 5.6-9.1h2.5zm7.4 2.1v12.8h-2.2v-12.8h-4.4v-2.1h11v2.1h-4.4zm15.9-2.1v14.9h-2.2v-6.4h-8v6.4h-2.2v-14.9h2.2v6.4h8v-6.4h2.2z" fill="#ea4335"/>
</svg>

