<svg xmlns="http://www.w3.org/2000/svg" viewBox="0 0 780 500">
  <path d="M40,0h700c22.1,0,40,17.9,40,40v420c0,22.1-17.9,40-40,40H40c-22.1,0-40-17.9-40-40V40C0,17.9,17.9,0,40,0z" fill="#FFFFFF"/>
  <path d="M670.8,170.2v28h-33.2v66.1h-37.3v-66.1h-33.6v-28H670.8z M595.6,198.2v66.1h-38.2v-32.9h-29.5v32.9h-37.3v-66.1H595.6z M538.1,217.9v-19.7h-29.5v19.7H538.1z M481.6,198.2c7.2,0,13.8,0.9,19.8,3.4v-31.4h37.3v94.1h-37.3v-3.4c-6,2.5-12.6,3.4-19.8,3.4c-31.6,0-57.2-17.4-57.2-33.1C424.4,215.5,450,198.2,481.6,198.2z M487.8,238.9c9.4,0,17-7.6,17-17s-7.6-17-17-17s-17,7.6-17,17S478.4,238.9,487.8,238.9z M409.9,198.2v66.1h-38.2v-32.9h-29.5v32.9h-37.3v-66.1H409.9z M352.4,217.9v-19.7h-29.5v19.7H352.4z M296,198.2c7.2,0,13.8,0.9,19.8,3.4v-31.4h37.3v94.1h-37.3v-3.4c-6,2.5-12.6,3.4-19.8,3.4c-31.6,0-57.2-17.4-57.2-33.1C238.8,215.5,264.4,198.2,296,198.2z M302.1,238.9c9.4,0,17-7.6,17-17s-7.6-17-17-17s-17,7.6-17,17S292.7,238.9,302.1,238.9z" fill="#0079BE"/>
  <path d="M590.4,215.5c0,15.7-25.6,33.1-57.2,33.1c-7.2,0-13.8-0.9-19.8-3.4v3.4h-37.3v-94.1h37.3v31.4c6-2.5,12.6-3.4,19.8-3.4C564.8,182.4,590.4,199.8,590.4,215.5z M533.2,198.2c-9.4,0-17,7.6-17,17s7.6,17,17,17s17-7.6,17-17S542.6,198.2,533.2,198.2z M404.7,215.5c0,15.7-25.6,33.1-57.2,33.1c-7.2,0-13.8-0.9-19.8-3.4v3.4h-37.3v-94.1h37.3v31.4c6-2.5,12.6-3.4,19.8-3.4C379.1,182.4,404.7,199.8,404.7,215.5z M347.5,198.2c-9.4,0-17,7.6-17,17s7.6,17,17,17s17-7.6,17-17S356.9,198.2,347.5,198.2z" fill="#EA564B"/>
  <path d="M193.7,235.6c0-2.9,2.3-5.2,5.2-5.2h45.1c2.9,0,5.2,2.3,5.2,5.2v12.3c0,2.9-2.3,5.2-5.2,5.2h-45.1c-2.9,0-5.2-2.3-5.2-5.2V235.6z" fill="#006CB9"/>
  <path d="M193.7,263.9c0-2.9,2.3-5.2,5.2-5.2h45.1c2.9,0,5.2,2.3,5.2,5.2v12.3c0,2.9-2.3,5.2-5.2,5.2h-45.1c-2.9,0-5.2-2.3-5.2-5.2V263.9z" fill="#A8B1BD"/>
  <path d="M193.7,292.2c0-2.9,2.3-5.2,5.2-5.2h45.1c2.9,0,5.2,2.3,5.2,5.2v12.3c0,2.9-2.3,5.2-5.2,5.2h-45.1c-2.9,0-5.2-2.3-5.2-5.2V292.2z" fill="#55B330"/>
</svg>

