<svg xmlns="http://www.w3.org/2000/svg" viewBox="0 0 512 512">
  <rect width="512" height="512" rx="15" fill="#ff5636"/>
  <path d="M256 120c-74.99 0-136 61.01-136 136s61.01 136 136 136 136-61.01 136-136-61.01-136-136-136zm0 240c-57.35 0-104-46.65-104-104s46.65-104 104-104 104 46.65 104 104-46.65 104-104 104z" fill="#fff"/>
  <path d="M256 184c-39.7 0-72 32.3-72 72s32.3 72 72 72 72-32.3 72-72-32.3-72-72-72zm0 112c-22.06 0-40-17.94-40-40s17.94-40 40-40 40 17.94 40 40-17.94 40-40 40z" fill="#fff"/>
  <circle cx="256" cy="256" r="24" fill="#fff"/>
</svg>

