<svg xmlns="http://www.w3.org/2000/svg" viewBox="0 0 512 512">
  <rect width="512" height="512" rx="15" fill="#00529b"/>
  <path d="M95.21 221.08h321.58v69.85H95.21z" fill="#faaf40"/>
  <path d="M256 151.23c-38.35 0-69.85 31.5-69.85 69.85s31.5 69.85 69.85 69.85 69.85-31.5 69.85-69.85-31.5-69.85-69.85-69.85zm0 104.77a34.92 34.92 0 1134.92-34.92A34.92 34.92 0 01256 256z" fill="#fff"/>
  <path d="M256 186.15a34.92 34.92 0 1034.92 34.92A34.92 34.92 0 00256 186.15zm0 52.38a17.46 17.46 0 1117.46-17.46A17.46 17.46 0 01256 238.54z" fill="#00529b"/>
  <path d="M256 203.62a17.46 17.46 0 1017.46 17.46A17.46 17.46 0 00256 203.62z" fill="#fff"/>
</svg>

