<svg xmlns="http://www.w3.org/2000/svg" viewBox="0 0 1000 324">
  <path fill="#00579F" d="M651.3,0.2h-118c-27.4,0-48.1,7.9-60.4,36.9L358.4,323.4h84.7c0,0,13.6-36.7,16.6-44.7c9.1,0,89.5,0.1,101,0.1c2.4,10.3,9.5,44.6,9.5,44.6h74.9L651.3,0.2L651.3,0.2z M487.8,222.8c6.5-17.2,31.4-82.7,31.4-82.7c-0.5,0.7,6.5-17.3,10.4-28.5l5.3,25.5c0,0,15,71,18.2,85.7C535.9,222.8,506.8,222.8,487.8,222.8z"/>
  <path fill="#00579F" d="M355.7,0.2h-80.6l-50.4,323.2h76.5L355.7,0.2z"/>
  <path fill="#00579F" d="M263.8,0.2L183.5,221.7l-8.6-44.4c-14.9-49.2-61.5-102.5-113.5-129l73.3,275.1h86.6L334.4,0.2H263.8z"/>
  <path fill="#FAA61A" d="M131.2,0.2H1.8l-1.1,6.4c100.9,25.2,167.7,86.2,195.2,159.3L169.6,37.1C164.6,13.9,150.3,1.6,131.2,0.2z"/>
  <path fill="#00579F" d="M784.8,221.7l39.5-108.3c-0.5,0.7-7.8-20.3-9.9-26.2l-5.3,28.1c0,0-18.7,86.4-22.8,106.4H784.8L784.8,221.7z"/>
  <path fill="#00579F" d="M894.9,125.5c-10.8-4.2-17.5-7-17.4-11.3c0.1-3.8,4.3-7.8,13.5-7.8c11.2-0.2,19.4,2.5,25.7,5.2l3.1-20.3c-6.3-2.4-14.3-4.7-24.4-4.7c-26.8,0-45.7,14.3-45.8,34.8c-0.2,15.1,13.5,23.6,23.8,28.6c10.6,5.1,14.1,8.4,14.1,13c-0.1,7-8.4,10.2-16.3,10.2c-13.7,0-21.5-3.9-27.9-6.7l-3.1,21.1c6.3,2.9,18.1,5.5,30.2,5.6c28.5,0,47.1-14.1,47.2-36C918.1,140.6,911.6,132.5,894.9,125.5z"/>
  <path fill="#00579F" d="M998.9,87.2h-20.8c-6.4,0-11.3,1.8-14.1,8.4l-49.9,127.8h35.2c0,0,5.8-15.7,7.1-19.1c3.8,0,37.9,0,42.8,0c1,4.4,4.1,19.1,4.1,19.1h31.1L998.9,87.2L998.9,87.2z M965.2,179.5c2.8-7.3,13.3-35.4,13.3-35.4c-0.2,0.3,2.7-7.3,4.4-12.1l2.3,10.9c0,0,6.3,30.3,7.7,36.6C984.3,179.5,972.3,179.5,965.2,179.5z"/>
  <path fill="#00579F" d="M806.7,87.2l-27.5,74.7l-2.9-15.1c-5.1-16.8-21-35-38.8-44.1l25.1,94h35.4l44.1-109.5H806.7z"/>
</svg>

